<svg id="Layer_1" data-name="Layer 1" xmlns="http://www.w3.org/2000/svg" viewBox="0 0 233.61 323.48"><defs><style>.cls-1{fill:#00aeef;}.cls-2{fill:#6d6e71;}</style></defs><polygon class="cls-1" points="83.72 61.88 66.05 82.27 26.56 36.74 0 36.74 0 159.52 30.59 159.52 30.59 82.88 63.75 121.38 68.34 121.38 83.72 103.53 83.72 61.88"/><polygon class="cls-1" points="105.51 36.74 101.51 41.35 101.51 82.88 101.51 131.43 101.51 159.52 132.1 159.52 132.1 36.74 105.51 36.74"/><polygon class="cls-1" points="101.51 26.56 106.16 30.59 132.1 30.59 132.1 0 101.51 0 101.51 26.56"/><polygon class="cls-2" points="149.89 61.88 167.56 82.27 207.06 36.74 233.61 36.74 233.61 159.52 203.03 159.52 203.03 82.88 169.87 121.38 165.27 121.38 149.89 103.53 149.89 61.88"/><polygon class="cls-2" points="83.72 261.61 66.05 241.22 26.56 286.74 0 286.74 0 163.96 30.59 163.96 30.59 240.6 63.75 202.1 68.34 202.1 83.72 219.96 83.72 261.61"/><polygon class="cls-2" points="105.51 286.74 101.51 282.13 101.51 240.6 101.51 192.05 101.51 163.96 132.1 163.96 132.1 286.74 105.51 286.74"/><polygon class="cls-2" points="101.51 296.92 106.16 292.9 132.1 292.9 132.1 323.48 101.51 323.48 101.51 296.92"/><polygon class="cls-2" points="149.89 261.61 167.56 241.22 207.06 286.74 233.61 286.74 233.61 163.96 203.03 163.96 203.03 240.6 169.87 202.1 165.27 202.1 149.89 219.96 149.89 261.61"/></svg>